<?xml version="1.0"?>
<svg width="640" height="480" xmlns="http://www.w3.org/2000/svg" xmlns:svg="http://www.w3.org/2000/svg">
 <!-- Created with SVG-edit - https://github.com/SVG-Edit/svgedit-->
 <g class="layer">
  <title>Layer 1</title>
  <path d="m247.86,370.93c-115.05,-79.01 -156.19,-128.99 -156.52,-190.18c-0.3,-55.78 50.48,-109.61 103.1,-109.3c26.28,0.16 82.65,20.68 102.61,37.37c10.06,8.41 14.82,7.58 37.21,-6.48c60.94,-38.25 120.45,-39.05 158.99,-2.14c61.6,58.99 50.38,129.43 -32.24,202.49c-43.92,38.85 -139.85,107.76 -149.99,107.76c-3.09,0 -31.51,-17.78 -63.16,-39.52z" fill="#ff0000" id="svg_10" stroke="#000000"/>
  <path d="m309.2,142.06c-2.18,0 -4.12,0.83 -5.75,2.34c-1.63,1.51 -2.98,3.67 -4.11,6.38c-2.25,5.4 -3.63,12.99 -4.39,22.08c-0.76,9.07 -0.88,19.64 -0.57,30.94c-26.9,10.28 -81.46,31.52 -85.85,36.26c-5.84,6.31 -3.95,13.55 -1.6,18.35l89.7,-17.01c1.9,22.17 4.59,44.12 6.94,61.33c-8.77,2.39 -25.15,7.12 -28.53,10.04c-4.66,4.03 -4.66,17.07 -4.66,17.07l36.71,-2.78c0.86,5.62 1.41,8.89 1.41,8.89l0.05,0.3l0.29,0l0.68,0l0.29,0l0.05,-0.3c0,0 0.54,-3.28 1.41,-8.89l36.72,2.78c0,0 0,-13.03 -4.66,-17.07c-3.38,-2.93 -19.77,-7.66 -28.54,-10.06c2.34,-17.15 5.04,-39.02 6.93,-61.12l88.65,16.81c2.35,-4.8 4.25,-12.04 -1.59,-18.35c-4.33,-4.68 -57.57,-25.44 -84.81,-35.86c0.33,-11.45 0.21,-22.16 -0.56,-31.34l0,-0.02c-0.76,-9.08 -2.14,-16.66 -4.39,-22.06c-1.12,-2.7 -2.46,-4.86 -4.1,-6.38c-1.63,-1.51 -3.57,-2.34 -5.75,-2.34z" fill="#000000" id="svg_11" stroke="#000000"/>
 </g>
</svg>